<?xml version="1.0" encoding="UTF-8" standalone="no"?>
<!DOCTYPE svg PUBLIC "-//W3C//DTD SVG 1.1//EN"
 "http://www.w3.org/Graphics/SVG/1.1/DTD/svg11.dtd">
<!-- Generated by graphviz version 2.44.0 (20200408.0750)
 -->
<!-- Title: dependency&#45;cruiser output Pages: 1 -->
<svg width="495pt" height="509pt"
 viewBox="0.00 0.00 495.00 509.39" xmlns="http://www.w3.org/2000/svg" xmlns:xlink="http://www.w3.org/1999/xlink">
<g id="graph0" class="graph" transform="scale(1 1) rotate(0) translate(4 505.39)">
<title>dependency&#45;cruiser output</title>
<polygon fill="white" stroke="transparent" points="-4,4 -4,-505.39 491,-505.39 491,4 -4,4"/>
<g id="clust1" class="cluster">
<title>cluster_config</title>
<path fill="#ffffff" stroke="black" stroke-width="2" d="M135,-108C135,-108 327,-108 327,-108 333,-108 339,-114 339,-120 339,-120 339,-298 339,-298 339,-304 333,-310 327,-310 327,-310 135,-310 135,-310 129,-310 123,-304 123,-298 123,-298 123,-120 123,-120 123,-114 129,-108 135,-108"/>
<text text-anchor="middle" x="231" y="-298.8" font-family="Helvetica,sans-Serif" font-weight="bold" font-size="9.00">config</text>
</g>
<g id="clust2" class="cluster">
<title>cluster_creds</title>
<path fill="#ffffff" stroke="black" stroke-width="2" d="M359,-8C359,-8 467,-8 467,-8 473,-8 479,-14 479,-20 479,-20 479,-138 479,-138 479,-144 473,-150 467,-150 467,-150 359,-150 359,-150 353,-150 347,-144 347,-138 347,-138 347,-20 347,-20 347,-14 353,-8 359,-8"/>
<text text-anchor="middle" x="413" y="-138.8" font-family="Helvetica,sans-Serif" font-weight="bold" font-size="9.00">creds</text>
</g>
<g id="clust3" class="cluster">
<title>cluster_routes</title>
<path fill="#ffffff" stroke="black" stroke-width="2" d="M34.5,-97C34.5,-97 80.5,-97 80.5,-97 86.5,-97 92.5,-103 92.5,-109 92.5,-109 92.5,-137 92.5,-137 92.5,-143 86.5,-149 80.5,-149 80.5,-149 34.5,-149 34.5,-149 28.5,-149 22.5,-143 22.5,-137 22.5,-137 22.5,-109 22.5,-109 22.5,-103 28.5,-97 34.5,-97"/>
<text text-anchor="middle" x="57.5" y="-137.8" font-family="Helvetica,sans-Serif" font-weight="bold" font-size="9.00">routes</text>
</g>
<g id="clust4" class="cluster">
<title>cluster_schema</title>
<path fill="#ffffff" stroke="black" stroke-width="2" d="M253,-318C253,-318 326,-318 326,-318 332,-318 338,-324 338,-330 338,-330 338,-358 338,-358 338,-364 332,-370 326,-370 326,-370 253,-370 253,-370 247,-370 241,-364 241,-358 241,-358 241,-330 241,-330 241,-324 247,-318 253,-318"/>
<text text-anchor="middle" x="289.5" y="-358.8" font-family="Helvetica,sans-Serif" font-weight="bold" font-size="9.00">schema</text>
</g>
<!-- LICENSE -->
<g id="node1" class="node">
<title>LICENSE</title>
<g id="a_node1"><a xlink:href="LICENSE" xlink:title="LICENSE">
<path fill="#ffffcc" stroke="black" d="M79.5,-26C79.5,-26 35.5,-26 35.5,-26 32.5,-26 29.5,-23 29.5,-20 29.5,-20 29.5,-14 29.5,-14 29.5,-11 32.5,-8 35.5,-8 35.5,-8 79.5,-8 79.5,-8 82.5,-8 85.5,-11 85.5,-14 85.5,-14 85.5,-20 85.5,-20 85.5,-23 82.5,-26 79.5,-26"/>
<text text-anchor="middle" x="57.5" y="-14.8" font-family="Helvetica,sans-Serif" font-size="9.00">LICENSE</text>
</a>
</g>
</g>
<!-- ✖ -->
<g id="node2" class="node">
<title>✖</title>
<path fill="#ffffcc" stroke="red" d="M203,-26C203,-26 161,-26 161,-26 158,-26 155,-23 155,-20 155,-20 155,-14 155,-14 155,-11 158,-8 161,-8 161,-8 203,-8 203,-8 206,-8 209,-11 209,-14 209,-14 209,-20 209,-20 209,-23 206,-26 203,-26"/>
<text text-anchor="middle" x="182" y="-14.8" font-family="Helvetica,sans-Serif" font-size="9.00" fill="red">✖</text>
</g>
<!-- LICENSE&#45;&gt;✖ -->
<g id="edge1" class="edge">
<title>LICENSE&#45;&gt;✖</title>
<path fill="none" stroke="#000000" stroke-width="2" stroke-opacity="0.200000" d="M85.69,-17C104.26,-17 128.96,-17 148.56,-17"/>
<polygon fill="#000000" fill-opacity="0.200000" stroke="#000000" stroke-width="2" stroke-opacity="0.200000" points="148.73,-19.1 154.73,-17 148.73,-14.9 148.73,-19.1"/>
</g>
<!-- README.md -->
<g id="node3" class="node">
<title>README.md</title>
<g id="a_node3"><a xlink:href="README.md" xlink:title="README.md">
<path fill="#ccffcc" stroke="black" d="M87,-78C87,-78 28,-78 28,-78 25,-78 22,-75 22,-72 22,-72 22,-66 22,-66 22,-63 25,-60 28,-60 28,-60 87,-60 87,-60 90,-60 93,-63 93,-66 93,-66 93,-72 93,-72 93,-75 90,-78 87,-78"/>
<text text-anchor="middle" x="57.5" y="-66.8" font-family="Helvetica,sans-Serif" font-size="9.00">README.md</text>
</a>
</g>
</g>
<!-- app.js -->
<g id="node4" class="node">
<title>app.js</title>
<g id="a_node4"><a xlink:href="app.js" xlink:title="app.js">
<path fill="#ffffcc" stroke="black" d="M78.5,-175C78.5,-175 36.5,-175 36.5,-175 33.5,-175 30.5,-172 30.5,-169 30.5,-169 30.5,-163 30.5,-163 30.5,-160 33.5,-157 36.5,-157 36.5,-157 78.5,-157 78.5,-157 81.5,-157 84.5,-160 84.5,-163 84.5,-163 84.5,-169 84.5,-169 84.5,-172 81.5,-175 78.5,-175"/>
<text text-anchor="middle" x="57.5" y="-163.8" font-family="Helvetica,sans-Serif" font-size="9.00">app.js</text>
</a>
</g>
</g>
<!-- config/childSpawn.js -->
<g id="node5" class="node">
<title>config/childSpawn.js</title>
<g id="a_node5"><a xlink:href="config/childSpawn.js" xlink:title="childSpawn.js">
<path fill="#ffffcc" stroke="black" d="M213,-164C213,-164 151,-164 151,-164 148,-164 145,-161 145,-158 145,-158 145,-152 145,-152 145,-149 148,-146 151,-146 151,-146 213,-146 213,-146 216,-146 219,-149 219,-152 219,-152 219,-158 219,-158 219,-161 216,-164 213,-164"/>
<text text-anchor="middle" x="182" y="-152.8" font-family="Helvetica,sans-Serif" font-size="9.00">childSpawn.js</text>
</a>
</g>
</g>
<!-- app.js&#45;&gt;config/childSpawn.js -->
<g id="edge2" class="edge">
<title>app.js&#45;&gt;config/childSpawn.js</title>
<path fill="none" stroke="#000000" stroke-width="2" stroke-opacity="0.200000" d="M84.78,-163.64C100.31,-162.25 120.34,-160.45 138.11,-158.85"/>
<polygon fill="#000000" fill-opacity="0.200000" stroke="#000000" stroke-width="2" stroke-opacity="0.200000" points="138.75,-160.9 144.54,-158.27 138.38,-156.72 138.75,-160.9"/>
</g>
<!-- config/logs.js -->
<g id="node6" class="node">
<title>config/logs.js</title>
<g id="a_node6"><a xlink:href="config/logs.js" xlink:title="logs.js">
<path fill="#ffffcc" stroke="black" d="M310.5,-164C310.5,-164 268.5,-164 268.5,-164 265.5,-164 262.5,-161 262.5,-158 262.5,-158 262.5,-152 262.5,-152 262.5,-149 265.5,-146 268.5,-146 268.5,-146 310.5,-146 310.5,-146 313.5,-146 316.5,-149 316.5,-152 316.5,-152 316.5,-158 316.5,-158 316.5,-161 313.5,-164 310.5,-164"/>
<text text-anchor="middle" x="289.5" y="-152.8" font-family="Helvetica,sans-Serif" font-size="9.00">logs.js</text>
</a>
</g>
</g>
<!-- app.js&#45;&gt;config/logs.js -->
<g id="edge3" class="edge">
<title>app.js&#45;&gt;config/logs.js</title>
<path fill="none" stroke="#000000" stroke-width="2" stroke-opacity="0.200000" d="M84.63,-165.5C95.43,-163.93 107.22,-160.22 115,-152 128.06,-138.2 108.36,-122.11 123,-110 160.67,-78.83 194.23,-80.22 233,-110 243.94,-118.41 231.47,-130.02 241,-140 245.21,-144.41 250.71,-147.53 256.46,-149.73"/>
<polygon fill="#000000" fill-opacity="0.200000" stroke="#000000" stroke-width="2" stroke-opacity="0.200000" points="255.9,-151.76 262.26,-151.64 257.22,-147.77 255.9,-151.76"/>
</g>
<!-- routes/tweet.js -->
<g id="node7" class="node">
<title>routes/tweet.js</title>
<g id="a_node7"><a xlink:href="routes/tweet.js" xlink:title="tweet.js">
<path fill="#ffffcc" stroke="black" d="M78.5,-123C78.5,-123 36.5,-123 36.5,-123 33.5,-123 30.5,-120 30.5,-117 30.5,-117 30.5,-111 30.5,-111 30.5,-108 33.5,-105 36.5,-105 36.5,-105 78.5,-105 78.5,-105 81.5,-105 84.5,-108 84.5,-111 84.5,-111 84.5,-117 84.5,-117 84.5,-120 81.5,-123 78.5,-123"/>
<text text-anchor="middle" x="57.5" y="-111.8" font-family="Helvetica,sans-Serif" font-size="9.00">tweet.js</text>
</a>
</g>
</g>
<!-- app.js&#45;&gt;routes/tweet.js -->
<g id="edge4" class="edge">
<title>app.js&#45;&gt;routes/tweet.js</title>
<path fill="none" stroke="#000000" stroke-width="2" stroke-opacity="0.200000" d="M57.5,-156.67C57.5,-150.25 57.5,-143.82 57.5,-137.4"/>
<polygon fill="#000000" fill-opacity="0.200000" stroke="#000000" stroke-width="2" stroke-opacity="0.200000" points="59.6,-129.34 57.5,-123.34 55.4,-129.34 59.6,-129.34"/>
<polyline fill="none" stroke="#000000" stroke-width="2" stroke-opacity="0.200000" points="57.5,-129.34 57.5,-132.34 "/>
<ellipse fill="none" stroke="#000000" stroke-width="2" stroke-opacity="0.200000" cx="57.5" cy="-134.74" rx="2.4" ry="2.4"/>
</g>
<!-- fs -->
<g id="node8" class="node">
<title>fs</title>
<path fill="#ffffcc" stroke="grey" d="M310.5,-482C310.5,-482 268.5,-482 268.5,-482 265.5,-482 262.5,-479 262.5,-476 262.5,-476 262.5,-470 262.5,-470 262.5,-467 265.5,-464 268.5,-464 268.5,-464 310.5,-464 310.5,-464 313.5,-464 316.5,-467 316.5,-470 316.5,-470 316.5,-476 316.5,-476 316.5,-479 313.5,-482 310.5,-482"/>
<text text-anchor="middle" x="289.5" y="-470.8" font-family="Helvetica,sans-Serif" font-size="9.00" fill="grey">fs</text>
</g>
<!-- app.js&#45;&gt;fs -->
<g id="edge5" class="edge">
<title>app.js&#45;&gt;fs</title>
<path fill="none" stroke="#000000" stroke-dasharray="5,2" stroke-opacity="0.200000" d="M84.67,-166.4C95.75,-168.02 107.75,-171.98 115,-181 127.89,-197.03 113.18,-347.92 123,-366 151.22,-417.94 216.72,-448.5 256.33,-462.89"/>
<polygon fill="#000000" fill-opacity="0.200000" stroke="#000000" stroke-opacity="0.200000" points="256.1,-465.04 262.46,-465.06 257.51,-461.08 256.1,-465.04"/>
</g>
<!-- path -->
<g id="node9" class="node">
<title>path</title>
<path fill="#ffffcc" stroke="grey" d="M434,-454C434,-454 392,-454 392,-454 389,-454 386,-451 386,-448 386,-448 386,-442 386,-442 386,-439 389,-436 392,-436 392,-436 434,-436 434,-436 437,-436 440,-439 440,-442 440,-442 440,-448 440,-448 440,-451 437,-454 434,-454"/>
<text text-anchor="middle" x="413" y="-442.8" font-family="Helvetica,sans-Serif" font-size="9.00" fill="grey">path</text>
</g>
<!-- app.js&#45;&gt;path -->
<g id="edge6" class="edge">
<title>app.js&#45;&gt;path</title>
<path fill="none" stroke="#000000" stroke-dasharray="5,2" stroke-opacity="0.200000" d="M84.71,-166.37C95.8,-167.98 107.79,-171.95 115,-181 131.48,-201.7 109.45,-396.27 123,-419 174.61,-505.56 241.77,-514.51 339,-488 360.49,-482.14 382.09,-468.17 396.16,-457.73"/>
<polygon fill="#000000" fill-opacity="0.200000" stroke="#000000" stroke-opacity="0.200000" points="397.48,-459.37 400.99,-454.07 394.94,-456.03 397.48,-459.37"/>
</g>
<!-- config/childSpawn.js&#45;&gt;config/logs.js -->
<g id="edge9" class="edge">
<title>config/childSpawn.js&#45;&gt;config/logs.js</title>
<path fill="none" stroke="#000000" stroke-width="2" stroke-opacity="0.200000" d="M219.01,-155C231,-155 244.27,-155 255.98,-155"/>
<polygon fill="#000000" fill-opacity="0.200000" stroke="#000000" stroke-width="2" stroke-opacity="0.200000" points="256.3,-157.1 262.3,-155 256.3,-152.9 256.3,-157.1"/>
</g>
<!-- config/childSpawn.js&#45;&gt;fs -->
<g id="edge11" class="edge">
<title>config/childSpawn.js&#45;&gt;fs</title>
<path fill="none" stroke="#000000" stroke-dasharray="5,2" stroke-opacity="0.200000" d="M219.23,-159.89C224.58,-162.16 229.47,-165.4 233,-170 250.74,-193.1 228.47,-405.71 241,-432 246.59,-443.72 257.27,-453.42 267.09,-460.44"/>
<polygon fill="#000000" fill-opacity="0.200000" stroke="#000000" stroke-opacity="0.200000" points="265.98,-462.22 272.12,-463.86 268.34,-458.74 265.98,-462.22"/>
</g>
<!-- child_process -->
<g id="node10" class="node">
<title>child_process</title>
<path fill="#ffffcc" stroke="grey" d="M320.5,-396C320.5,-396 258.5,-396 258.5,-396 255.5,-396 252.5,-393 252.5,-390 252.5,-390 252.5,-384 252.5,-384 252.5,-381 255.5,-378 258.5,-378 258.5,-378 320.5,-378 320.5,-378 323.5,-378 326.5,-381 326.5,-384 326.5,-384 326.5,-390 326.5,-390 326.5,-393 323.5,-396 320.5,-396"/>
<text text-anchor="middle" x="289.5" y="-384.8" font-family="Helvetica,sans-Serif" font-size="9.00" fill="grey">child_process</text>
</g>
<!-- config/childSpawn.js&#45;&gt;child_process -->
<g id="edge10" class="edge">
<title>config/childSpawn.js&#45;&gt;child_process</title>
<path fill="none" stroke="#000000" stroke-dasharray="5,2" stroke-opacity="0.200000" d="M219.19,-159.92C224.55,-162.19 229.45,-165.42 233,-170 246.83,-187.84 227.13,-355.19 241,-373 242.66,-375.14 244.64,-376.96 246.82,-378.51"/>
<polygon fill="#000000" fill-opacity="0.200000" stroke="#000000" stroke-opacity="0.200000" points="246,-380.47 252.24,-381.67 248.11,-376.84 246,-380.47"/>
</g>
<!-- config/dbConnection.js -->
<g id="node11" class="node">
<title>config/dbConnection.js</title>
<g id="a_node11"><a xlink:href="config/dbConnection.js" xlink:title="dbConnection.js">
<path fill="#ffffcc" stroke="black" d="M325,-134C325,-134 254,-134 254,-134 251,-134 248,-131 248,-128 248,-128 248,-122 248,-122 248,-119 251,-116 254,-116 254,-116 325,-116 325,-116 328,-116 331,-119 331,-122 331,-122 331,-128 331,-128 331,-131 328,-134 325,-134"/>
<text text-anchor="middle" x="289.5" y="-122.8" font-family="Helvetica,sans-Serif" font-size="9.00">dbConnection.js</text>
</a>
</g>
</g>
<!-- config/childSpawn.js&#45;&gt;config/dbConnection.js -->
<g id="edge7" class="edge">
<title>config/childSpawn.js&#45;&gt;config/dbConnection.js</title>
<path fill="none" stroke="#000000" stroke-width="2" stroke-opacity="0.200000" d="M214.65,-146C225.92,-142.8 238.73,-139.15 250.47,-135.81"/>
<polygon fill="#000000" fill-opacity="0.200000" stroke="#000000" stroke-width="2" stroke-opacity="0.200000" points="251.31,-137.76 256.5,-134.1 250.16,-133.72 251.31,-137.76"/>
</g>
<!-- schema/tweetSchema.js -->
<g id="node12" class="node">
<title>schema/tweetSchema.js</title>
<g id="a_node12"><a xlink:href="schema/tweetSchema.js" xlink:title="tweetSchema.js">
<path fill="#ffffcc" stroke="black" d="M324,-344C324,-344 255,-344 255,-344 252,-344 249,-341 249,-338 249,-338 249,-332 249,-332 249,-329 252,-326 255,-326 255,-326 324,-326 324,-326 327,-326 330,-329 330,-332 330,-332 330,-338 330,-338 330,-341 327,-344 324,-344"/>
<text text-anchor="middle" x="289.5" y="-332.8" font-family="Helvetica,sans-Serif" font-size="9.00">tweetSchema.js</text>
</a>
</g>
</g>
<!-- config/childSpawn.js&#45;&gt;schema/tweetSchema.js -->
<g id="edge8" class="edge">
<title>config/childSpawn.js&#45;&gt;schema/tweetSchema.js</title>
<path fill="none" stroke="#000000" stroke-width="2" stroke-opacity="0.200000" d="M219.13,-159.97C224.49,-162.23 229.41,-165.45 233,-170 252.7,-194.99 223.12,-286.67 241,-313 243.66,-316.91 247.19,-320.14 251.15,-322.81"/>
<polygon fill="#000000" fill-opacity="0.200000" stroke="#000000" stroke-width="2" stroke-opacity="0.200000" points="250.11,-324.63 256.34,-325.89 252.25,-321.02 250.11,-324.63"/>
</g>
<!-- config/logs.js&#45;&gt;path -->
<g id="edge17" class="edge">
<title>config/logs.js&#45;&gt;path</title>
<path fill="none" stroke="#000000" stroke-dasharray="5,2" stroke-opacity="0.200000" d="M294.4,-164.32C312.01,-206.34 384.07,-378.32 405.78,-430.15"/>
<polygon fill="#000000" fill-opacity="0.200000" stroke="#000000" stroke-opacity="0.200000" points="403.91,-431.14 408.17,-435.86 407.79,-429.51 403.91,-431.14"/>
</g>
<!-- routes/tweet.js&#45;&gt;app.js -->
<g id="edge24" class="edge">
<title>routes/tweet.js&#45;&gt;app.js</title>
<path fill="none" stroke="#000000" stroke-width="2" stroke-opacity="0.200000" d="M57.5,-123.34C57.5,-129.77 57.5,-136.19 57.5,-142.61"/>
<polygon fill="#000000" fill-opacity="0.200000" stroke="#000000" stroke-width="2" stroke-opacity="0.200000" points="55.4,-150.67 57.5,-156.67 59.6,-150.67 55.4,-150.67"/>
<polyline fill="none" stroke="#000000" stroke-width="2" stroke-opacity="0.200000" points="57.5,-150.67 57.5,-147.67 "/>
<ellipse fill="none" stroke="#000000" stroke-width="2" stroke-opacity="0.200000" cx="57.5" cy="-145.27" rx="2.4" ry="2.4"/>
</g>
<!-- routes/tweet.js&#45;&gt;config/logs.js -->
<g id="edge25" class="edge">
<title>routes/tweet.js&#45;&gt;config/logs.js</title>
<path fill="none" stroke="#000000" stroke-width="2" stroke-opacity="0.200000" d="M73.21,-104.89C85.88,-97.61 104.91,-88 123,-84 170.74,-73.44 196.07,-51.97 233,-84 251.99,-100.47 224.74,-120.83 241,-140 245.03,-144.75 250.55,-148.01 256.4,-150.25"/>
<polygon fill="#000000" fill-opacity="0.200000" stroke="#000000" stroke-width="2" stroke-opacity="0.200000" points="255.97,-152.32 262.32,-152.17 257.26,-148.32 255.97,-152.32"/>
</g>
<!-- routes/tweet.js&#45;&gt;fs -->
<g id="edge28" class="edge">
<title>routes/tweet.js&#45;&gt;fs</title>
<path fill="none" stroke="#000000" stroke-dasharray="5,2" stroke-opacity="0.200000" d="M81.73,-123.02C93.86,-129.02 107.66,-138.18 115,-151 132.91,-182.28 103.19,-282.89 123,-313 152.93,-358.5 202.01,-322.21 233,-367 254.09,-397.48 219.83,-419.58 241,-450 244.93,-455.64 250.63,-459.95 256.74,-463.23"/>
<polygon fill="#000000" fill-opacity="0.200000" stroke="#000000" stroke-opacity="0.200000" points="256.1,-465.25 262.41,-465.95 257.91,-461.46 256.1,-465.25"/>
</g>
<!-- config/workerRelay.js -->
<g id="node19" class="node">
<title>config/workerRelay.js</title>
<g id="a_node19"><a xlink:href="config/workerRelay.js" xlink:title="workerRelay.js">
<path fill="#ffffcc" stroke="black" d="M214.5,-134C214.5,-134 149.5,-134 149.5,-134 146.5,-134 143.5,-131 143.5,-128 143.5,-128 143.5,-122 143.5,-122 143.5,-119 146.5,-116 149.5,-116 149.5,-116 214.5,-116 214.5,-116 217.5,-116 220.5,-119 220.5,-122 220.5,-122 220.5,-128 220.5,-128 220.5,-131 217.5,-134 214.5,-134"/>
<text text-anchor="middle" x="182" y="-122.8" font-family="Helvetica,sans-Serif" font-size="9.00">workerRelay.js</text>
</a>
</g>
</g>
<!-- routes/tweet.js&#45;&gt;config/workerRelay.js -->
<g id="edge26" class="edge">
<title>routes/tweet.js&#45;&gt;config/workerRelay.js</title>
<path fill="none" stroke="#000000" stroke-width="2" stroke-opacity="0.200000" d="M84.78,-116.36C99.93,-117.72 119.38,-119.47 136.82,-121.03"/>
<polygon fill="#000000" fill-opacity="0.200000" stroke="#000000" stroke-width="2" stroke-opacity="0.200000" points="136.98,-123.16 143.14,-121.6 137.35,-118.97 136.98,-123.16"/>
</g>
<!-- creds/tweetapiKey.js -->
<g id="node21" class="node">
<title>creds/tweetapiKey.js</title>
<g id="a_node21"><a xlink:href="creds/tweetapiKey.js" xlink:title="tweetapiKey.js">
<path fill="#ffffcc" stroke="black" d="M445,-64C445,-64 381,-64 381,-64 378,-64 375,-61 375,-58 375,-58 375,-52 375,-52 375,-49 378,-46 381,-46 381,-46 445,-46 445,-46 448,-46 451,-49 451,-52 451,-52 451,-58 451,-58 451,-61 448,-64 445,-64"/>
<text text-anchor="middle" x="413" y="-52.8" font-family="Helvetica,sans-Serif" font-size="9.00">tweetapiKey.js</text>
</a>
</g>
</g>
<!-- routes/tweet.js&#45;&gt;creds/tweetapiKey.js -->
<g id="edge27" class="edge">
<title>routes/tweet.js&#45;&gt;creds/tweetapiKey.js</title>
<path fill="none" stroke="#000000" stroke-width="2" stroke-opacity="0.200000" d="M84.13,-104.99C94.84,-100.15 106.69,-93.26 115,-84 121.4,-76.88 115.16,-69.49 123,-64 161.42,-37.11 297.73,-44.68 368.55,-50.73"/>
<polygon fill="#000000" fill-opacity="0.200000" stroke="#000000" stroke-width="2" stroke-opacity="0.200000" points="368.62,-52.84 374.78,-51.27 368.99,-48.66 368.62,-52.84"/>
</g>
<!-- creds/mongoKey.js -->
<g id="node15" class="node">
<title>creds/mongoKey.js</title>
<g id="a_node15"><a xlink:href="creds/mongoKey.js" xlink:title="mongoKey.js">
<path fill="#ffffcc" stroke="black" d="M442,-124C442,-124 384,-124 384,-124 381,-124 378,-121 378,-118 378,-118 378,-112 378,-112 378,-109 381,-106 384,-106 384,-106 442,-106 442,-106 445,-106 448,-109 448,-112 448,-112 448,-118 448,-118 448,-121 445,-124 442,-124"/>
<text text-anchor="middle" x="413" y="-112.8" font-family="Helvetica,sans-Serif" font-size="9.00">mongoKey.js</text>
</a>
</g>
</g>
<!-- config/dbConnection.js&#45;&gt;creds/mongoKey.js -->
<g id="edge16" class="edge">
<title>config/dbConnection.js&#45;&gt;creds/mongoKey.js</title>
<path fill="none" stroke="#000000" stroke-width="2" stroke-opacity="0.200000" d="M331.3,-121.64C344.33,-120.57 358.74,-119.38 371.74,-118.31"/>
<polygon fill="#000000" fill-opacity="0.200000" stroke="#000000" stroke-width="2" stroke-opacity="0.200000" points="372.18,-120.38 377.99,-117.8 371.84,-116.2 372.18,-120.38"/>
</g>
<!-- config/csvGen.js -->
<g id="node13" class="node">
<title>config/csvGen.js</title>
<g id="a_node13"><a xlink:href="config/csvGen.js" xlink:title="csvGen.js">
<path fill="#ffffcc" stroke="black" d="M204,-284C204,-284 160,-284 160,-284 157,-284 154,-281 154,-278 154,-278 154,-272 154,-272 154,-269 157,-266 160,-266 160,-266 204,-266 204,-266 207,-266 210,-269 210,-272 210,-272 210,-278 210,-278 210,-281 207,-284 204,-284"/>
<text text-anchor="middle" x="182" y="-272.8" font-family="Helvetica,sans-Serif" font-size="9.00">csvGen.js</text>
</a>
</g>
</g>
<!-- config/csvGen.js&#45;&gt;config/logs.js -->
<g id="edge12" class="edge">
<title>config/csvGen.js&#45;&gt;config/logs.js</title>
<path fill="none" stroke="#000000" stroke-width="2" stroke-opacity="0.200000" d="M210.08,-271.01C218.11,-268.8 226.49,-265.35 233,-260 262.12,-236.06 277.95,-192.77 284.63,-169.97"/>
<polygon fill="#000000" fill-opacity="0.200000" stroke="#000000" stroke-width="2" stroke-opacity="0.200000" points="286.67,-170.46 286.27,-164.12 282.62,-169.33 286.67,-170.46"/>
</g>
<!-- config/csvGen.js&#45;&gt;fs -->
<g id="edge13" class="edge">
<title>config/csvGen.js&#45;&gt;fs</title>
<path fill="none" stroke="#000000" stroke-dasharray="5,2" stroke-opacity="0.200000" d="M191.98,-284.15C203.78,-296.83 224.07,-321.02 233,-346 241.18,-368.87 226.48,-435.53 241,-455 244.96,-460.3 250.67,-464.04 256.78,-466.68"/>
<polygon fill="#000000" fill-opacity="0.200000" stroke="#000000" stroke-opacity="0.200000" points="256.1,-468.67 262.46,-468.81 257.58,-464.74 256.1,-468.67"/>
</g>
<!-- config/csvGen.js&#45;&gt;path -->
<g id="edge14" class="edge">
<title>config/csvGen.js&#45;&gt;path</title>
<path fill="none" stroke="#000000" stroke-dasharray="5,2" stroke-opacity="0.200000" d="M191.91,-284.17C203.63,-296.88 223.82,-321.1 233,-346 239.64,-364.01 227.31,-418.54 241,-432 259.96,-450.64 335.69,-449.6 379.76,-447.27"/>
<polygon fill="#000000" fill-opacity="0.200000" stroke="#000000" stroke-opacity="0.200000" points="379.88,-449.36 385.75,-446.93 379.65,-445.17 379.88,-449.36"/>
</g>
<!-- worker_threads -->
<g id="node14" class="node">
<title>worker_threads</title>
<path fill="#ffffcc" stroke="grey" d="M323.5,-426C323.5,-426 255.5,-426 255.5,-426 252.5,-426 249.5,-423 249.5,-420 249.5,-420 249.5,-414 249.5,-414 249.5,-411 252.5,-408 255.5,-408 255.5,-408 323.5,-408 323.5,-408 326.5,-408 329.5,-411 329.5,-414 329.5,-414 329.5,-420 329.5,-420 329.5,-423 326.5,-426 323.5,-426"/>
<text text-anchor="middle" x="289.5" y="-414.8" font-family="Helvetica,sans-Serif" font-size="9.00" fill="grey">worker_threads</text>
</g>
<!-- config/csvGen.js&#45;&gt;worker_threads -->
<g id="edge15" class="edge">
<title>config/csvGen.js&#45;&gt;worker_threads</title>
<path fill="none" stroke="#000000" stroke-dasharray="5,2" stroke-opacity="0.200000" d="M191.73,-284.24C203.25,-297.03 223.21,-321.34 233,-346 242.27,-369.37 224.74,-382.83 241,-402 242.03,-403.21 243.15,-404.33 244.36,-405.35"/>
<polygon fill="#000000" fill-opacity="0.200000" stroke="#000000" stroke-opacity="0.200000" points="243.23,-407.13 249.34,-408.89 245.66,-403.7 243.23,-407.13"/>
</g>
<!-- config/meCache.js -->
<g id="node16" class="node">
<title>config/meCache.js</title>
<g id="a_node16"><a xlink:href="config/meCache.js" xlink:title="meCache.js">
<path fill="#ccffcc" stroke="black" d="M208.5,-224C208.5,-224 155.5,-224 155.5,-224 152.5,-224 149.5,-221 149.5,-218 149.5,-218 149.5,-212 149.5,-212 149.5,-209 152.5,-206 155.5,-206 155.5,-206 208.5,-206 208.5,-206 211.5,-206 214.5,-209 214.5,-212 214.5,-212 214.5,-218 214.5,-218 214.5,-221 211.5,-224 208.5,-224"/>
<text text-anchor="middle" x="182" y="-212.8" font-family="Helvetica,sans-Serif" font-size="9.00">meCache.js</text>
</a>
</g>
</g>
<!-- config/streamMiddleware.js -->
<g id="node17" class="node">
<title>config/streamMiddleware.js</title>
<g id="a_node17"><a xlink:href="config/streamMiddleware.js" xlink:title="streamMiddleware.js">
<path fill="#ccffcc" stroke="black" d="M226.5,-194C226.5,-194 137.5,-194 137.5,-194 134.5,-194 131.5,-191 131.5,-188 131.5,-188 131.5,-182 131.5,-182 131.5,-179 134.5,-176 137.5,-176 137.5,-176 226.5,-176 226.5,-176 229.5,-176 232.5,-179 232.5,-182 232.5,-182 232.5,-188 232.5,-188 232.5,-191 229.5,-194 226.5,-194"/>
<text text-anchor="middle" x="182" y="-182.8" font-family="Helvetica,sans-Serif" font-size="9.00">streamMiddleware.js</text>
</a>
</g>
</g>
<!-- config/textProcessWorker.js -->
<g id="node18" class="node">
<title>config/textProcessWorker.js</title>
<g id="a_node18"><a xlink:href="config/textProcessWorker.js" xlink:title="textProcessWorker.js">
<path fill="#ffffcc" stroke="black" d="M227,-254C227,-254 137,-254 137,-254 134,-254 131,-251 131,-248 131,-248 131,-242 131,-242 131,-239 134,-236 137,-236 137,-236 227,-236 227,-236 230,-236 233,-239 233,-242 233,-242 233,-248 233,-248 233,-251 230,-254 227,-254"/>
<text text-anchor="middle" x="182" y="-242.8" font-family="Helvetica,sans-Serif" font-size="9.00">textProcessWorker.js</text>
</a>
</g>
</g>
<!-- config/textProcessWorker.js&#45;&gt;config/logs.js -->
<g id="edge18" class="edge">
<title>config/textProcessWorker.js&#45;&gt;config/logs.js</title>
<path fill="none" stroke="#000000" stroke-width="2" stroke-opacity="0.200000" d="M222.36,-235.89C226.12,-234.24 229.74,-232.29 233,-230 255.31,-214.32 272.27,-186.84 281.28,-169.85"/>
<polygon fill="#000000" fill-opacity="0.200000" stroke="#000000" stroke-width="2" stroke-opacity="0.200000" points="283.36,-170.4 284.23,-164.11 279.62,-168.48 283.36,-170.4"/>
</g>
<!-- config/textProcessWorker.js&#45;&gt;worker_threads -->
<g id="edge19" class="edge">
<title>config/textProcessWorker.js&#45;&gt;worker_threads</title>
<path fill="none" stroke="#000000" stroke-dasharray="5,2" stroke-opacity="0.200000" d="M226.73,-254.13C229.08,-255.78 231.2,-257.72 233,-260 252.57,-284.82 221.61,-377.04 241,-402 241.98,-403.25 243.05,-404.41 244.22,-405.46"/>
<polygon fill="#000000" fill-opacity="0.200000" stroke="#000000" stroke-opacity="0.200000" points="243.02,-407.19 249.09,-409.09 245.53,-403.82 243.02,-407.19"/>
</g>
<!-- config/workerRelay.js&#45;&gt;config/logs.js -->
<g id="edge22" class="edge">
<title>config/workerRelay.js&#45;&gt;config/logs.js</title>
<path fill="none" stroke="#000000" stroke-width="2" stroke-opacity="0.200000" d="M214.65,-134C227.81,-137.74 243.07,-142.08 256.28,-145.84"/>
<polygon fill="#000000" fill-opacity="0.200000" stroke="#000000" stroke-width="2" stroke-opacity="0.200000" points="255.85,-147.9 262.2,-147.52 257,-143.86 255.85,-147.9"/>
</g>
<!-- config/workerRelay.js&#45;&gt;config/dbConnection.js -->
<g id="edge21" class="edge">
<title>config/workerRelay.js&#45;&gt;config/dbConnection.js</title>
<path fill="none" stroke="#000000" stroke-width="2" stroke-opacity="0.200000" d="M220.79,-125C227.49,-125 234.54,-125 241.46,-125"/>
<polygon fill="#000000" fill-opacity="0.200000" stroke="#000000" stroke-width="2" stroke-opacity="0.200000" points="241.76,-127.1 247.76,-125 241.76,-122.9 241.76,-127.1"/>
</g>
<!-- config/workerRelay.js&#45;&gt;schema/tweetSchema.js -->
<g id="edge20" class="edge">
<title>config/workerRelay.js&#45;&gt;schema/tweetSchema.js</title>
<path fill="none" stroke="#000000" stroke-width="2" stroke-opacity="0.200000" d="M220.66,-130.6C225.43,-132.82 229.77,-135.86 233,-140 244.84,-155.17 230.27,-297.03 241,-313 243.64,-316.92 247.16,-320.16 251.11,-322.83"/>
<polygon fill="#000000" fill-opacity="0.200000" stroke="#000000" stroke-width="2" stroke-opacity="0.200000" points="250.07,-324.66 256.3,-325.92 252.22,-321.04 250.07,-324.66"/>
</g>
<!-- config/workerRelay.js&#45;&gt;worker_threads -->
<g id="edge23" class="edge">
<title>config/workerRelay.js&#45;&gt;worker_threads</title>
<path fill="none" stroke="#000000" stroke-dasharray="5,2" stroke-opacity="0.200000" d="M220.72,-130.56C225.48,-132.78 229.8,-135.83 233,-140 250.74,-163.1 223.43,-378.77 241,-402 242,-403.33 243.13,-404.54 244.34,-405.65"/>
<polygon fill="#000000" fill-opacity="0.200000" stroke="#000000" stroke-opacity="0.200000" points="243.38,-407.55 249.45,-409.42 245.87,-404.17 243.38,-407.55"/>
</g>
<!-- creds/mongoKey_example.js -->
<g id="node20" class="node">
<title>creds/mongoKey_example.js</title>
<g id="a_node20"><a xlink:href="creds/mongoKey_example.js" xlink:title="mongoKey_example.js">
<path fill="#ccffcc" stroke="black" d="M462,-94C462,-94 364,-94 364,-94 361,-94 358,-91 358,-88 358,-88 358,-82 358,-82 358,-79 361,-76 364,-76 364,-76 462,-76 462,-76 465,-76 468,-79 468,-82 468,-82 468,-88 468,-88 468,-91 465,-94 462,-94"/>
<text text-anchor="middle" x="413" y="-82.8" font-family="Helvetica,sans-Serif" font-size="9.00">mongoKey_example.js</text>
</a>
</g>
</g>
<!-- creds/tweetapiKey_example.js -->
<g id="node22" class="node">
<title>creds/tweetapiKey_example.js</title>
<g id="a_node22"><a xlink:href="creds/tweetapiKey_example.js" xlink:title="tweetapiKey_example.js">
<path fill="#ccffcc" stroke="black" d="M465,-34C465,-34 361,-34 361,-34 358,-34 355,-31 355,-28 355,-28 355,-22 355,-22 355,-19 358,-16 361,-16 361,-16 465,-16 465,-16 468,-16 471,-19 471,-22 471,-22 471,-28 471,-28 471,-31 468,-34 465,-34"/>
<text text-anchor="middle" x="413" y="-22.8" font-family="Helvetica,sans-Serif" font-size="9.00">tweetapiKey_example.js</text>
</a>
</g>
</g>
<!-- dependencygraph.svg -->
<g id="node23" class="node">
<title>dependencygraph.svg</title>
<g id="a_node23"><a xlink:href="dependencygraph.svg" xlink:title="dependencygraph.svg">
<path fill="#ccffcc" stroke="black" d="M105.5,-205C105.5,-205 9.5,-205 9.5,-205 6.5,-205 3.5,-202 3.5,-199 3.5,-199 3.5,-193 3.5,-193 3.5,-190 6.5,-187 9.5,-187 9.5,-187 105.5,-187 105.5,-187 108.5,-187 111.5,-190 111.5,-193 111.5,-193 111.5,-199 111.5,-199 111.5,-202 108.5,-205 105.5,-205"/>
<text text-anchor="middle" x="57.5" y="-193.8" font-family="Helvetica,sans-Serif" font-size="9.00">dependencygraph.svg</text>
</a>
</g>
</g>
<!-- ecosystem.config.js -->
<g id="node24" class="node">
<title>ecosystem.config.js</title>
<g id="a_node24"><a xlink:href="ecosystem.config.js" xlink:title="ecosystem.config.js">
<path fill="#ccffcc" stroke="black" d="M99.5,-235C99.5,-235 15.5,-235 15.5,-235 12.5,-235 9.5,-232 9.5,-229 9.5,-229 9.5,-223 9.5,-223 9.5,-220 12.5,-217 15.5,-217 15.5,-217 99.5,-217 99.5,-217 102.5,-217 105.5,-220 105.5,-223 105.5,-223 105.5,-229 105.5,-229 105.5,-232 102.5,-235 99.5,-235"/>
<text text-anchor="middle" x="57.5" y="-223.8" font-family="Helvetica,sans-Serif" font-size="9.00">ecosystem.config.js</text>
</a>
</g>
</g>
<!-- ecosystem.json -->
<g id="node25" class="node">
<title>ecosystem.json</title>
<g id="a_node25"><a xlink:href="ecosystem.json" xlink:title="ecosystem.json">
<path fill="#ccffcc" stroke="black" d="M91.5,-265C91.5,-265 23.5,-265 23.5,-265 20.5,-265 17.5,-262 17.5,-259 17.5,-259 17.5,-253 17.5,-253 17.5,-250 20.5,-247 23.5,-247 23.5,-247 91.5,-247 91.5,-247 94.5,-247 97.5,-250 97.5,-253 97.5,-253 97.5,-259 97.5,-259 97.5,-262 94.5,-265 91.5,-265"/>
<text text-anchor="middle" x="57.5" y="-253.8" font-family="Helvetica,sans-Serif" font-size="9.00">ecosystem.json</text>
</a>
</g>
</g>
<!-- ecosystem_backup.json -->
<g id="node26" class="node">
<title>ecosystem_backup.json</title>
<g id="a_node26"><a xlink:href="ecosystem_backup.json" xlink:title="ecosystem_backup.json">
<path fill="#ccffcc" stroke="black" d="M109,-295C109,-295 6,-295 6,-295 3,-295 0,-292 0,-289 0,-289 0,-283 0,-283 0,-280 3,-277 6,-277 6,-277 109,-277 109,-277 112,-277 115,-280 115,-283 115,-283 115,-289 115,-289 115,-292 112,-295 109,-295"/>
<text text-anchor="middle" x="57.5" y="-283.8" font-family="Helvetica,sans-Serif" font-size="9.00">ecosystem_backup.json</text>
</a>
</g>
</g>
<!-- ecosystem_gcp.json -->
<g id="node27" class="node">
<title>ecosystem_gcp.json</title>
<g id="a_node27"><a xlink:href="ecosystem_gcp.json" xlink:title="ecosystem_gcp.json">
<path fill="#ccffcc" stroke="black" d="M101.5,-325C101.5,-325 13.5,-325 13.5,-325 10.5,-325 7.5,-322 7.5,-319 7.5,-319 7.5,-313 7.5,-313 7.5,-310 10.5,-307 13.5,-307 13.5,-307 101.5,-307 101.5,-307 104.5,-307 107.5,-310 107.5,-313 107.5,-313 107.5,-319 107.5,-319 107.5,-322 104.5,-325 101.5,-325"/>
<text text-anchor="middle" x="57.5" y="-313.8" font-family="Helvetica,sans-Serif" font-size="9.00">ecosystem_gcp.json</text>
</a>
</g>
</g>
<!-- package&#45;lock.json -->
<g id="node28" class="node">
<title>package&#45;lock.json</title>
<g id="a_node28"><a xlink:href="package-lock.json" xlink:title="package&#45;lock.json">
<path fill="#ccffcc" stroke="black" d="M97,-355C97,-355 18,-355 18,-355 15,-355 12,-352 12,-349 12,-349 12,-343 12,-343 12,-340 15,-337 18,-337 18,-337 97,-337 97,-337 100,-337 103,-340 103,-343 103,-343 103,-349 103,-349 103,-352 100,-355 97,-355"/>
<text text-anchor="middle" x="57.5" y="-343.8" font-family="Helvetica,sans-Serif" font-size="9.00">package&#45;lock.json</text>
</a>
</g>
</g>
<!-- package.json -->
<g id="node29" class="node">
<title>package.json</title>
<g id="a_node29"><a xlink:href="package.json" xlink:title="package.json">
<path fill="#ccffcc" stroke="black" d="M87,-385C87,-385 28,-385 28,-385 25,-385 22,-382 22,-379 22,-379 22,-373 22,-373 22,-370 25,-367 28,-367 28,-367 87,-367 87,-367 90,-367 93,-370 93,-373 93,-373 93,-379 93,-379 93,-382 90,-385 87,-385"/>
<text text-anchor="middle" x="57.5" y="-373.8" font-family="Helvetica,sans-Serif" font-size="9.00">package.json</text>
</a>
</g>
</g>
<!-- torCH -->
<g id="node30" class="node">
<title>torCH</title>
<g id="a_node30"><a xlink:href="torCH" xlink:title="torCH">
<path fill="#ccffcc" stroke="black" d="M78.5,-415C78.5,-415 36.5,-415 36.5,-415 33.5,-415 30.5,-412 30.5,-409 30.5,-409 30.5,-403 30.5,-403 30.5,-400 33.5,-397 36.5,-397 36.5,-397 78.5,-397 78.5,-397 81.5,-397 84.5,-400 84.5,-403 84.5,-403 84.5,-409 84.5,-409 84.5,-412 81.5,-415 78.5,-415"/>
<text text-anchor="middle" x="57.5" y="-403.8" font-family="Helvetica,sans-Serif" font-size="9.00">torCH</text>
</a>
</g>
</g>
<!-- x.sh -->
<g id="node31" class="node">
<title>x.sh</title>
<g id="a_node31"><a xlink:href="x.sh" xlink:title="x.sh">
<path fill="#ccffcc" stroke="black" d="M78.5,-445C78.5,-445 36.5,-445 36.5,-445 33.5,-445 30.5,-442 30.5,-439 30.5,-439 30.5,-433 30.5,-433 30.5,-430 33.5,-427 36.5,-427 36.5,-427 78.5,-427 78.5,-427 81.5,-427 84.5,-430 84.5,-433 84.5,-433 84.5,-439 84.5,-439 84.5,-442 81.5,-445 78.5,-445"/>
<text text-anchor="middle" x="57.5" y="-433.8" font-family="Helvetica,sans-Serif" font-size="9.00">x.sh</text>
</a>
</g>
</g>
</g>
</svg>
