<?xml version="1.0" encoding="UTF-8" standalone="no"?>
<!DOCTYPE svg PUBLIC "-//W3C//DTD SVG 1.1//EN"
 "http://www.w3.org/Graphics/SVG/1.1/DTD/svg11.dtd">
<!-- Generated by graphviz version 2.43.0 (0)
 -->
<!-- Title: dependency&#45;cruiser output Pages: 1 -->
<svg width="527pt" height="495pt"
 viewBox="0.00 0.00 527.00 495.08" xmlns="http://www.w3.org/2000/svg" xmlns:xlink="http://www.w3.org/1999/xlink">
<g id="graph0" class="graph" transform="scale(1 1) rotate(0) translate(4 491.08)">
<title>dependency&#45;cruiser output</title>
<polygon fill="white" stroke="transparent" points="-4,4 -4,-491.08 523,-491.08 523,4 -4,4"/>
<g id="clust1" class="cluster">
<title>cluster_config</title>
<path fill="#ffffff" stroke="black" stroke-width="2" d="M128,-220.26C128,-220.26 414,-220.26 414,-220.26 420,-220.26 426,-226.26 426,-232.26 426,-232.26 426,-394.26 426,-394.26 426,-400.26 420,-406.26 414,-406.26 414,-406.26 128,-406.26 128,-406.26 122,-406.26 116,-400.26 116,-394.26 116,-394.26 116,-232.26 116,-232.26 116,-226.26 122,-220.26 128,-220.26"/>
<text text-anchor="middle" x="271" y="-395.06" font-family="Helvetica,sans-Serif" font-weight="bold" font-size="9.00">config</text>
</g>
<g id="clust2" class="cluster">
<title>cluster_creds</title>
<path fill="#ffffff" stroke="black" stroke-width="2" d="M337,-70.26C337,-70.26 445,-70.26 445,-70.26 451,-70.26 457,-76.26 457,-82.26 457,-82.26 457,-200.26 457,-200.26 457,-206.26 451,-212.26 445,-212.26 445,-212.26 337,-212.26 337,-212.26 331,-212.26 325,-206.26 325,-200.26 325,-200.26 325,-82.26 325,-82.26 325,-76.26 331,-70.26 337,-70.26"/>
<text text-anchor="middle" x="391" y="-201.06" font-family="Helvetica,sans-Serif" font-weight="bold" font-size="9.00">creds</text>
</g>
<g id="clust3" class="cluster">
<title>cluster_routes</title>
<path fill="#ffffff" stroke="black" stroke-width="2" d="M31,-132.26C31,-132.26 77,-132.26 77,-132.26 83,-132.26 89,-138.26 89,-144.26 89,-144.26 89,-172.26 89,-172.26 89,-178.26 83,-184.26 77,-184.26 77,-184.26 31,-184.26 31,-184.26 25,-184.26 19,-178.26 19,-172.26 19,-172.26 19,-144.26 19,-144.26 19,-138.26 25,-132.26 31,-132.26"/>
<text text-anchor="middle" x="54" y="-173.06" font-family="Helvetica,sans-Serif" font-weight="bold" font-size="9.00">routes</text>
</g>
<g id="clust4" class="cluster">
<title>cluster_schema</title>
<path fill="#ffffff" stroke="black" stroke-width="2" d="M228,-414.26C228,-414.26 302,-414.26 302,-414.26 308,-414.26 314,-420.26 314,-426.26 314,-426.26 314,-454.26 314,-454.26 314,-460.26 308,-466.26 302,-466.26 302,-466.26 228,-466.26 228,-466.26 222,-466.26 216,-460.26 216,-454.26 216,-454.26 216,-426.26 216,-426.26 216,-420.26 222,-414.26 228,-414.26"/>
<text text-anchor="middle" x="265" y="-455.06" font-family="Helvetica,sans-Serif" font-weight="bold" font-size="9.00">schema</text>
</g>
<!-- LICENSE -->
<g id="node1" class="node">
<title>LICENSE</title>
<g id="a_node1"><a xlink:href="LICENSE" xlink:title="LICENSE">
<path fill="#ccffcc" stroke="black" d="M75,-94.26C75,-94.26 33,-94.26 33,-94.26 30,-94.26 27,-91.26 27,-88.26 27,-88.26 27,-82.26 27,-82.26 27,-79.26 30,-76.26 33,-76.26 33,-76.26 75,-76.26 75,-76.26 78,-76.26 81,-79.26 81,-82.26 81,-82.26 81,-88.26 81,-88.26 81,-91.26 78,-94.26 75,-94.26"/>
<text text-anchor="middle" x="54" y="-83.06" font-family="Helvetica,sans-Serif" font-size="9.00">LICENSE</text>
</a>
</g>
</g>
<!-- README.md -->
<g id="node2" class="node">
<title>README.md</title>
<g id="a_node2"><a xlink:href="README.md" xlink:title="README.md">
<path fill="#ccffcc" stroke="black" d="M82,-124.26C82,-124.26 26,-124.26 26,-124.26 23,-124.26 20,-121.26 20,-118.26 20,-118.26 20,-112.26 20,-112.26 20,-109.26 23,-106.26 26,-106.26 26,-106.26 82,-106.26 82,-106.26 85,-106.26 88,-109.26 88,-112.26 88,-112.26 88,-118.26 88,-118.26 88,-121.26 85,-124.26 82,-124.26"/>
<text text-anchor="middle" x="54" y="-113.06" font-family="Helvetica,sans-Serif" font-size="9.00">README.md</text>
</a>
</g>
</g>
<!-- app.js -->
<g id="node3" class="node">
<title>app.js</title>
<g id="a_node3"><a xlink:href="app.js" xlink:title="app.js">
<path fill="#ffffcc" stroke="black" d="M183,-119.26C183,-119.26 141,-119.26 141,-119.26 138,-119.26 135,-116.26 135,-113.26 135,-113.26 135,-107.26 135,-107.26 135,-104.26 138,-101.26 141,-101.26 141,-101.26 183,-101.26 183,-101.26 186,-101.26 189,-104.26 189,-107.26 189,-107.26 189,-113.26 189,-113.26 189,-116.26 186,-119.26 183,-119.26"/>
<text text-anchor="middle" x="162" y="-108.06" font-family="Helvetica,sans-Serif" font-size="9.00">app.js</text>
</a>
</g>
</g>
<!-- config/logs.js -->
<g id="node4" class="node">
<title>config/logs.js</title>
<g id="a_node4"><a xlink:href="config/logs.js" xlink:title="logs.js">
<path fill="#ffffcc" stroke="black" d="M412,-280.26C412,-280.26 370,-280.26 370,-280.26 367,-280.26 364,-277.26 364,-274.26 364,-274.26 364,-268.26 364,-268.26 364,-265.26 367,-262.26 370,-262.26 370,-262.26 412,-262.26 412,-262.26 415,-262.26 418,-265.26 418,-268.26 418,-268.26 418,-274.26 418,-274.26 418,-277.26 415,-280.26 412,-280.26"/>
<text text-anchor="middle" x="391" y="-269.06" font-family="Helvetica,sans-Serif" font-size="9.00">logs.js</text>
</a>
</g>
</g>
<!-- app.js&#45;&gt;config/logs.js -->
<g id="edge1" class="edge">
<title>app.js&#45;&gt;config/logs.js</title>
<path fill="none" stroke="#000000" stroke-width="2" stroke-opacity="0.200000" d="M188.95,-101.21C223.09,-91.14 282.77,-80.17 317,-112.26 333.75,-127.96 314.63,-194.78 325,-215.26 334.47,-233.96 353.17,-249.02 368.09,-258.8"/>
<polygon fill="#000000" fill-opacity="0.200000" stroke="#000000" stroke-width="2" stroke-opacity="0.200000" points="367.2,-260.72 373.39,-262.16 369.44,-257.17 367.2,-260.72"/>
</g>
<!-- config/sentiment.js -->
<g id="node5" class="node">
<title>config/sentiment.js</title>
<g id="a_node5"><a xlink:href="config/sentiment.js" xlink:title="sentiment.js">
<path fill="#ffffcc" stroke="black" d="M293,-350.26C293,-350.26 237,-350.26 237,-350.26 234,-350.26 231,-347.26 231,-344.26 231,-344.26 231,-338.26 231,-338.26 231,-335.26 234,-332.26 237,-332.26 237,-332.26 293,-332.26 293,-332.26 296,-332.26 299,-335.26 299,-338.26 299,-338.26 299,-344.26 299,-344.26 299,-347.26 296,-350.26 293,-350.26"/>
<text text-anchor="middle" x="265" y="-339.06" font-family="Helvetica,sans-Serif" font-size="9.00">sentiment.js</text>
</a>
</g>
</g>
<!-- app.js&#45;&gt;config/sentiment.js -->
<g id="edge2" class="edge">
<title>app.js&#45;&gt;config/sentiment.js</title>
<path fill="none" stroke="#000000" stroke-width="2" stroke-opacity="0.200000" d="M168.67,-119.45C177.12,-133.63 192.77,-161.96 200,-188.26 208.17,-217.96 193.41,-302.49 213,-326.26 216.29,-330.25 220.59,-333.22 225.29,-335.41"/>
<polygon fill="#000000" fill-opacity="0.200000" stroke="#000000" stroke-width="2" stroke-opacity="0.200000" points="224.61,-337.4 230.96,-337.65 226.15,-333.49 224.61,-337.4"/>
</g>
<!-- routes/tweet.js -->
<g id="node6" class="node">
<title>routes/tweet.js</title>
<g id="a_node6"><a xlink:href="routes/tweet.js" xlink:title="tweet.js">
<path fill="#ffffcc" stroke="black" d="M75,-158.26C75,-158.26 33,-158.26 33,-158.26 30,-158.26 27,-155.26 27,-152.26 27,-152.26 27,-146.26 27,-146.26 27,-143.26 30,-140.26 33,-140.26 33,-140.26 75,-140.26 75,-140.26 78,-140.26 81,-143.26 81,-146.26 81,-146.26 81,-152.26 81,-152.26 81,-155.26 78,-158.26 75,-158.26"/>
<text text-anchor="middle" x="54" y="-147.06" font-family="Helvetica,sans-Serif" font-size="9.00">tweet.js</text>
</a>
</g>
</g>
<!-- app.js&#45;&gt;routes/tweet.js -->
<g id="edge3" class="edge">
<title>app.js&#45;&gt;routes/tweet.js</title>
<path fill="none" stroke="#000000" stroke-width="2" stroke-opacity="0.200000" d="M149.23,-119.46C138.51,-124.86 122.21,-131.03 108,-136.26 103.64,-137.86 99.08,-139.53 94.53,-141.13"/>
<polygon fill="#000000" fill-opacity="0.200000" stroke="#000000" stroke-width="2" stroke-opacity="0.200000" points="86.19,-141.75 81.18,-145.67 87.54,-145.73 86.19,-141.75"/>
<polyline fill="none" stroke="#000000" stroke-width="2" stroke-opacity="0.200000" points="86.86,-143.74 89.7,-142.77 "/>
<ellipse fill="none" stroke="#000000" stroke-width="2" stroke-opacity="0.200000" cx="91.97" cy="-142" rx="2.4" ry="2.4"/>
</g>
<!-- events -->
<g id="node7" class="node">
<title>events</title>
<path fill="#ffffcc" stroke="grey" d="M286,-136.26C286,-136.26 244,-136.26 244,-136.26 241,-136.26 238,-133.26 238,-130.26 238,-130.26 238,-124.26 238,-124.26 238,-121.26 241,-118.26 244,-118.26 244,-118.26 286,-118.26 286,-118.26 289,-118.26 292,-121.26 292,-124.26 292,-124.26 292,-130.26 292,-130.26 292,-133.26 289,-136.26 286,-136.26"/>
<text text-anchor="middle" x="265" y="-125.06" font-family="Helvetica,sans-Serif" font-size="9.00" fill="grey">events</text>
</g>
<!-- app.js&#45;&gt;events -->
<g id="edge4" class="edge">
<title>app.js&#45;&gt;events</title>
<path fill="none" stroke="#000000" stroke-dasharray="5,2" stroke-opacity="0.200000" d="M189.01,-114.64C201.99,-116.82 217.81,-119.49 231.57,-121.8"/>
<polygon fill="#000000" fill-opacity="0.200000" stroke="#000000" stroke-opacity="0.200000" points="231.46,-123.91 237.73,-122.84 232.16,-119.77 231.46,-123.91"/>
</g>
<!-- fs -->
<g id="node8" class="node">
<title>fs</title>
<path fill="#ffffcc" stroke="grey" d="M412,-30.26C412,-30.26 370,-30.26 370,-30.26 367,-30.26 364,-27.26 364,-24.26 364,-24.26 364,-18.26 364,-18.26 364,-15.26 367,-12.26 370,-12.26 370,-12.26 412,-12.26 412,-12.26 415,-12.26 418,-15.26 418,-18.26 418,-18.26 418,-24.26 418,-24.26 418,-27.26 415,-30.26 412,-30.26"/>
<text text-anchor="middle" x="391" y="-19.06" font-family="Helvetica,sans-Serif" font-size="9.00" fill="grey">fs</text>
</g>
<!-- app.js&#45;&gt;fs -->
<g id="edge5" class="edge">
<title>app.js&#45;&gt;fs</title>
<path fill="none" stroke="#000000" stroke-dasharray="5,2" stroke-opacity="0.200000" d="M170.1,-101.16C178.97,-90.44 195.17,-72.86 213,-63.26 259.53,-38.22 320.85,-27.97 357.75,-23.87"/>
<polygon fill="#000000" fill-opacity="0.200000" stroke="#000000" stroke-opacity="0.200000" points="358.15,-25.94 363.9,-23.22 357.71,-21.77 358.15,-25.94"/>
</g>
<!-- path -->
<g id="node9" class="node">
<title>path</title>
<path fill="#ffffcc" stroke="grey" d="M513,-280.26C513,-280.26 471,-280.26 471,-280.26 468,-280.26 465,-277.26 465,-274.26 465,-274.26 465,-268.26 465,-268.26 465,-265.26 468,-262.26 471,-262.26 471,-262.26 513,-262.26 513,-262.26 516,-262.26 519,-265.26 519,-268.26 519,-268.26 519,-274.26 519,-274.26 519,-277.26 516,-280.26 513,-280.26"/>
<text text-anchor="middle" x="492" y="-269.06" font-family="Helvetica,sans-Serif" font-size="9.00" fill="grey">path</text>
</g>
<!-- app.js&#45;&gt;path -->
<g id="edge6" class="edge">
<title>app.js&#45;&gt;path</title>
<path fill="none" stroke="#000000" stroke-dasharray="5,2" stroke-opacity="0.200000" d="M180.15,-101.05C189.61,-96.31 201.69,-90.81 213,-87.26 264.91,-70.98 415.49,-32.1 457,-67.26 485.66,-91.54 490.19,-212.43 490.88,-255.77"/>
<polygon fill="#000000" fill-opacity="0.200000" stroke="#000000" stroke-opacity="0.200000" points="488.78,-255.84 490.96,-261.81 492.98,-255.78 488.78,-255.84"/>
</g>
<!-- config/logs.js&#45;&gt;path -->
<g id="edge13" class="edge">
<title>config/logs.js&#45;&gt;path</title>
<path fill="none" stroke="#000000" stroke-dasharray="5,2" stroke-opacity="0.200000" d="M418.01,-271.26C430.42,-271.26 445.39,-271.26 458.53,-271.26"/>
<polygon fill="#000000" fill-opacity="0.200000" stroke="#000000" stroke-opacity="0.200000" points="458.82,-273.36 464.82,-271.26 458.82,-269.16 458.82,-273.36"/>
</g>
<!-- config/sentiment.js&#45;&gt;config/logs.js -->
<g id="edge15" class="edge">
<title>config/sentiment.js&#45;&gt;config/logs.js</title>
<path fill="none" stroke="#000000" stroke-width="2" stroke-opacity="0.200000" d="M299.04,-333.43C305.17,-331.46 311.39,-329.08 317,-326.26 339.22,-315.09 361.6,-296.98 375.61,-284.61"/>
<polygon fill="#000000" fill-opacity="0.200000" stroke="#000000" stroke-width="2" stroke-opacity="0.200000" points="377.31,-285.91 380.38,-280.34 374.51,-282.78 377.31,-285.91"/>
</g>
<!-- child_process -->
<g id="node10" class="node">
<title>child_process</title>
<path fill="#ffffcc" stroke="grey" d="M421.5,-432.26C421.5,-432.26 360.5,-432.26 360.5,-432.26 357.5,-432.26 354.5,-429.26 354.5,-426.26 354.5,-426.26 354.5,-420.26 354.5,-420.26 354.5,-417.26 357.5,-414.26 360.5,-414.26 360.5,-414.26 421.5,-414.26 421.5,-414.26 424.5,-414.26 427.5,-417.26 427.5,-420.26 427.5,-420.26 427.5,-426.26 427.5,-426.26 427.5,-429.26 424.5,-432.26 421.5,-432.26"/>
<text text-anchor="middle" x="391" y="-421.06" font-family="Helvetica,sans-Serif" font-size="9.00" fill="grey">child_process</text>
</g>
<!-- config/sentiment.js&#45;&gt;child_process -->
<g id="edge16" class="edge">
<title>config/sentiment.js&#45;&gt;child_process</title>
<path fill="none" stroke="#000000" stroke-dasharray="5,2" stroke-opacity="0.200000" d="M299.08,-345.15C305.85,-347.41 312.33,-350.91 317,-356.26 332.66,-374.21 308.69,-391.9 325,-409.26 331.17,-415.82 339.61,-419.69 348.37,-421.89"/>
<polygon fill="#000000" fill-opacity="0.200000" stroke="#000000" stroke-opacity="0.200000" points="348.16,-423.99 354.46,-423.16 349.01,-419.87 348.16,-423.99"/>
</g>
<!-- routes/tweet.js&#45;&gt;app.js -->
<g id="edge23" class="edge">
<title>routes/tweet.js&#45;&gt;app.js</title>
<path fill="none" stroke="#000000" stroke-width="2" stroke-opacity="0.200000" d="M67.23,-140.2C77.99,-135.13 94.06,-129.39 108,-124.26 112.38,-122.65 116.97,-120.95 121.52,-119.28"/>
<polygon fill="#000000" fill-opacity="0.200000" stroke="#000000" stroke-width="2" stroke-opacity="0.200000" points="129.94,-118.51 134.88,-114.52 128.53,-114.56 129.94,-118.51"/>
<polyline fill="none" stroke="#000000" stroke-width="2" stroke-opacity="0.200000" points="129.23,-116.53 126.4,-117.54 "/>
<ellipse fill="none" stroke="#000000" stroke-width="2" stroke-opacity="0.200000" cx="124.14" cy="-118.35" rx="2.4" ry="2.4"/>
</g>
<!-- routes/tweet.js&#45;&gt;config/logs.js -->
<g id="edge24" class="edge">
<title>routes/tweet.js&#45;&gt;config/logs.js</title>
<path fill="none" stroke="#000000" stroke-width="2" stroke-opacity="0.200000" d="M81.24,-148.07C110.72,-147.45 159.74,-148.62 200,-160.26 270.77,-180.73 342.74,-233.35 373.94,-258.06"/>
<polygon fill="#000000" fill-opacity="0.200000" stroke="#000000" stroke-width="2" stroke-opacity="0.200000" points="372.94,-259.95 378.93,-262.06 375.56,-256.67 372.94,-259.95"/>
</g>
<!-- routes/tweet.js&#45;&gt;fs -->
<g id="edge28" class="edge">
<title>routes/tweet.js&#45;&gt;fs</title>
<path fill="none" stroke="#000000" stroke-dasharray="5,2" stroke-opacity="0.200000" d="M81.14,-145.89C91.05,-143.26 101.5,-138.58 108,-130.26 119,-116.18 104.23,-63.71 116,-50.26 176.18,18.51 299.13,0.79 357.65,-12.63"/>
<polygon fill="#000000" fill-opacity="0.200000" stroke="#000000" stroke-opacity="0.200000" points="357.46,-14.74 363.78,-14.08 358.43,-10.66 357.46,-14.74"/>
</g>
<!-- config/redisConnection.js -->
<g id="node15" class="node">
<title>config/redisConnection.js</title>
<g id="a_node15"><a xlink:href="config/redisConnection.js" xlink:title="redisConnection.js">
<path fill="#ffffcc" stroke="black" d="M306,-246.26C306,-246.26 224,-246.26 224,-246.26 221,-246.26 218,-243.26 218,-240.26 218,-240.26 218,-234.26 218,-234.26 218,-231.26 221,-228.26 224,-228.26 224,-228.26 306,-228.26 306,-228.26 309,-228.26 312,-231.26 312,-234.26 312,-234.26 312,-240.26 312,-240.26 312,-243.26 309,-246.26 306,-246.26"/>
<text text-anchor="middle" x="265" y="-235.06" font-family="Helvetica,sans-Serif" font-size="9.00">redisConnection.js</text>
</a>
</g>
</g>
<!-- routes/tweet.js&#45;&gt;config/redisConnection.js -->
<g id="edge25" class="edge">
<title>routes/tweet.js&#45;&gt;config/redisConnection.js</title>
<path fill="none" stroke="#000000" stroke-width="2" stroke-opacity="0.200000" d="M81.23,-153.14C111.15,-158.28 160.95,-169.01 200,-188.26 218.84,-197.55 237.58,-212.79 249.87,-223.81"/>
<polygon fill="#000000" fill-opacity="0.200000" stroke="#000000" stroke-width="2" stroke-opacity="0.200000" points="248.56,-225.45 254.41,-227.95 251.39,-222.35 248.56,-225.45"/>
</g>
<!-- config/workerRelay.js -->
<g id="node17" class="node">
<title>config/workerRelay.js</title>
<g id="a_node17"><a xlink:href="config/workerRelay.js" xlink:title="workerRelay.js">
<path fill="#ffffcc" stroke="black" d="M194,-298.26C194,-298.26 130,-298.26 130,-298.26 127,-298.26 124,-295.26 124,-292.26 124,-292.26 124,-286.26 124,-286.26 124,-283.26 127,-280.26 130,-280.26 130,-280.26 194,-280.26 194,-280.26 197,-280.26 200,-283.26 200,-286.26 200,-286.26 200,-292.26 200,-292.26 200,-295.26 197,-298.26 194,-298.26"/>
<text text-anchor="middle" x="162" y="-287.06" font-family="Helvetica,sans-Serif" font-size="9.00">workerRelay.js</text>
</a>
</g>
</g>
<!-- routes/tweet.js&#45;&gt;config/workerRelay.js -->
<g id="edge26" class="edge">
<title>routes/tweet.js&#45;&gt;config/workerRelay.js</title>
<path fill="none" stroke="#000000" stroke-width="2" stroke-opacity="0.200000" d="M74.34,-158.31C85.77,-164.61 99.6,-174.06 108,-186.26 116.32,-198.33 110.22,-204.79 116,-218.26 125.03,-239.34 139.93,-261.29 150.09,-275.1"/>
<polygon fill="#000000" fill-opacity="0.200000" stroke="#000000" stroke-width="2" stroke-opacity="0.200000" points="148.59,-276.6 153.86,-280.15 151.96,-274.09 148.59,-276.6"/>
</g>
<!-- creds/tweetapiKey.js -->
<g id="node20" class="node">
<title>creds/tweetapiKey.js</title>
<g id="a_node20"><a xlink:href="creds/tweetapiKey.js" xlink:title="tweetapiKey.js">
<path fill="#ffffcc" stroke="black" d="M423.5,-126.26C423.5,-126.26 358.5,-126.26 358.5,-126.26 355.5,-126.26 352.5,-123.26 352.5,-120.26 352.5,-120.26 352.5,-114.26 352.5,-114.26 352.5,-111.26 355.5,-108.26 358.5,-108.26 358.5,-108.26 423.5,-108.26 423.5,-108.26 426.5,-108.26 429.5,-111.26 429.5,-114.26 429.5,-114.26 429.5,-120.26 429.5,-120.26 429.5,-123.26 426.5,-126.26 423.5,-126.26"/>
<text text-anchor="middle" x="391" y="-115.06" font-family="Helvetica,sans-Serif" font-size="9.00">tweetapiKey.js</text>
</a>
</g>
</g>
<!-- routes/tweet.js&#45;&gt;creds/tweetapiKey.js -->
<g id="edge27" class="edge">
<title>routes/tweet.js&#45;&gt;creds/tweetapiKey.js</title>
<path fill="none" stroke="#000000" stroke-width="2" stroke-opacity="0.200000" d="M81.18,-145.32C90.86,-142.6 101.12,-138.01 108,-130.26 118.59,-118.32 103.94,-105.71 116,-95.26 183.56,-36.7 240.34,-41.26 317,-87.26 323.48,-91.15 319,-97.67 325,-102.26 331.23,-107.03 338.71,-110.33 346.35,-112.6"/>
<polygon fill="#000000" fill-opacity="0.200000" stroke="#000000" stroke-width="2" stroke-opacity="0.200000" points="345.86,-114.64 352.2,-114.14 346.93,-110.58 345.86,-114.64"/>
</g>
<!-- util -->
<g id="node27" class="node">
<title>util</title>
<path fill="#ffffcc" stroke="grey" d="M183,-212.26C183,-212.26 141,-212.26 141,-212.26 138,-212.26 135,-209.26 135,-206.26 135,-206.26 135,-200.26 135,-200.26 135,-197.26 138,-194.26 141,-194.26 141,-194.26 183,-194.26 183,-194.26 186,-194.26 189,-197.26 189,-200.26 189,-200.26 189,-206.26 189,-206.26 189,-209.26 186,-212.26 183,-212.26"/>
<text text-anchor="middle" x="162" y="-201.06" font-family="Helvetica,sans-Serif" font-size="9.00" fill="grey">util</text>
</g>
<!-- routes/tweet.js&#45;&gt;util -->
<g id="edge29" class="edge">
<title>routes/tweet.js&#45;&gt;util</title>
<path fill="none" stroke="#000000" stroke-dasharray="5,2" stroke-opacity="0.200000" d="M69.2,-158.48C81.35,-166.16 99.45,-177.12 116,-185.26 120.67,-187.56 125.7,-189.79 130.66,-191.86"/>
<polygon fill="#000000" fill-opacity="0.200000" stroke="#000000" stroke-opacity="0.200000" points="130.07,-193.89 136.41,-194.21 131.65,-190 130.07,-193.89"/>
</g>
<!-- config/csvGen.js -->
<g id="node11" class="node">
<title>config/csvGen.js</title>
<g id="a_node11"><a xlink:href="config/csvGen.js" xlink:title="csvGen.js">
<path fill="#ffffcc" stroke="black" d="M287.5,-320.26C287.5,-320.26 242.5,-320.26 242.5,-320.26 239.5,-320.26 236.5,-317.26 236.5,-314.26 236.5,-314.26 236.5,-308.26 236.5,-308.26 236.5,-305.26 239.5,-302.26 242.5,-302.26 242.5,-302.26 287.5,-302.26 287.5,-302.26 290.5,-302.26 293.5,-305.26 293.5,-308.26 293.5,-308.26 293.5,-314.26 293.5,-314.26 293.5,-317.26 290.5,-320.26 287.5,-320.26"/>
<text text-anchor="middle" x="265" y="-309.06" font-family="Helvetica,sans-Serif" font-size="9.00">csvGen.js</text>
</a>
</g>
</g>
<!-- config/csvGen.js&#45;&gt;config/logs.js -->
<g id="edge7" class="edge">
<title>config/csvGen.js&#45;&gt;config/logs.js</title>
<path fill="none" stroke="#000000" stroke-width="2" stroke-opacity="0.200000" d="M293.52,-302.38C312.61,-296.22 338.1,-288 358.08,-281.56"/>
<polygon fill="#000000" fill-opacity="0.200000" stroke="#000000" stroke-width="2" stroke-opacity="0.200000" points="358.77,-283.54 363.83,-279.7 357.48,-279.55 358.77,-283.54"/>
</g>
<!-- config/csvGen.js&#45;&gt;fs -->
<g id="edge8" class="edge">
<title>config/csvGen.js&#45;&gt;fs</title>
<path fill="none" stroke="#000000" stroke-dasharray="5,2" stroke-opacity="0.200000" d="M293.04,-302.18C302.24,-297.68 311.56,-291.23 317,-282.26 329.4,-261.82 313.62,-88.28 325,-67.26 333.19,-52.13 348.78,-40.83 362.64,-33.23"/>
<polygon fill="#000000" fill-opacity="0.200000" stroke="#000000" stroke-opacity="0.200000" points="363.71,-35.04 368.05,-30.39 361.76,-31.32 363.71,-35.04"/>
</g>
<!-- config/csvGen.js&#45;&gt;path -->
<g id="edge9" class="edge">
<title>config/csvGen.js&#45;&gt;path</title>
<path fill="none" stroke="#000000" stroke-dasharray="5,2" stroke-opacity="0.200000" d="M293.69,-310.11C331.3,-307.99 400.32,-302.12 457,-286.26 460.34,-285.33 463.78,-284.12 467.12,-282.81"/>
<polygon fill="#000000" fill-opacity="0.200000" stroke="#000000" stroke-opacity="0.200000" points="468.28,-284.6 473,-280.34 466.66,-280.72 468.28,-284.6"/>
</g>
<!-- worker_threads -->
<g id="node12" class="node">
<title>worker_threads</title>
<path fill="#ffffcc" stroke="grey" d="M424.5,-462.26C424.5,-462.26 357.5,-462.26 357.5,-462.26 354.5,-462.26 351.5,-459.26 351.5,-456.26 351.5,-456.26 351.5,-450.26 351.5,-450.26 351.5,-447.26 354.5,-444.26 357.5,-444.26 357.5,-444.26 424.5,-444.26 424.5,-444.26 427.5,-444.26 430.5,-447.26 430.5,-450.26 430.5,-450.26 430.5,-456.26 430.5,-456.26 430.5,-459.26 427.5,-462.26 424.5,-462.26"/>
<text text-anchor="middle" x="391" y="-451.06" font-family="Helvetica,sans-Serif" font-size="9.00" fill="grey">worker_threads</text>
</g>
<!-- config/csvGen.js&#45;&gt;worker_threads -->
<g id="edge10" class="edge">
<title>config/csvGen.js&#45;&gt;worker_threads</title>
<path fill="none" stroke="#000000" stroke-dasharray="5,2" stroke-opacity="0.200000" d="M293.55,-313.24C302.34,-315.29 311.27,-319.14 317,-326.26 332.65,-345.69 308.78,-419.3 325,-438.26 330.28,-444.43 337.54,-448.35 345.31,-450.78"/>
<polygon fill="#000000" fill-opacity="0.200000" stroke="#000000" stroke-opacity="0.200000" points="344.98,-452.87 351.32,-452.37 346.05,-448.81 344.98,-452.87"/>
</g>
<!-- config/dbConnection.js -->
<g id="node13" class="node">
<title>config/dbConnection.js</title>
<g id="a_node13"><a xlink:href="config/dbConnection.js" xlink:title="dbConnection.js">
<path fill="#ffffcc" stroke="black" d="M301,-276.26C301,-276.26 229,-276.26 229,-276.26 226,-276.26 223,-273.26 223,-270.26 223,-270.26 223,-264.26 223,-264.26 223,-261.26 226,-258.26 229,-258.26 229,-258.26 301,-258.26 301,-258.26 304,-258.26 307,-261.26 307,-264.26 307,-264.26 307,-270.26 307,-270.26 307,-273.26 304,-276.26 301,-276.26"/>
<text text-anchor="middle" x="265" y="-265.06" font-family="Helvetica,sans-Serif" font-size="9.00">dbConnection.js</text>
</a>
</g>
</g>
<!-- config/dbConnection.js&#45;&gt;config/logs.js -->
<g id="edge12" class="edge">
<title>config/dbConnection.js&#45;&gt;config/logs.js</title>
<path fill="none" stroke="#000000" stroke-width="2" stroke-opacity="0.200000" d="M307.29,-268.59C323.56,-269.12 341.99,-269.71 357.31,-270.21"/>
<polygon fill="#000000" fill-opacity="0.200000" stroke="#000000" stroke-width="2" stroke-opacity="0.200000" points="357.61,-272.32 363.67,-270.41 357.75,-268.12 357.61,-272.32"/>
</g>
<!-- creds/mongoKey.js -->
<g id="node14" class="node">
<title>creds/mongoKey.js</title>
<g id="a_node14"><a xlink:href="creds/mongoKey.js" xlink:title="mongoKey.js">
<path fill="#ffffcc" stroke="black" d="M420.5,-186.26C420.5,-186.26 361.5,-186.26 361.5,-186.26 358.5,-186.26 355.5,-183.26 355.5,-180.26 355.5,-180.26 355.5,-174.26 355.5,-174.26 355.5,-171.26 358.5,-168.26 361.5,-168.26 361.5,-168.26 420.5,-168.26 420.5,-168.26 423.5,-168.26 426.5,-171.26 426.5,-174.26 426.5,-174.26 426.5,-180.26 426.5,-180.26 426.5,-183.26 423.5,-186.26 420.5,-186.26"/>
<text text-anchor="middle" x="391" y="-175.06" font-family="Helvetica,sans-Serif" font-size="9.00">mongoKey.js</text>
</a>
</g>
</g>
<!-- config/dbConnection.js&#45;&gt;creds/mongoKey.js -->
<g id="edge11" class="edge">
<title>config/dbConnection.js&#45;&gt;creds/mongoKey.js</title>
<path fill="none" stroke="#000000" stroke-width="2" stroke-opacity="0.200000" d="M307.27,-259.52C310.89,-257.6 314.22,-255.22 317,-252.26 327.93,-240.64 315.7,-230.23 325,-217.26 333.84,-204.93 347.77,-195.63 360.47,-189.12"/>
<polygon fill="#000000" fill-opacity="0.200000" stroke="#000000" stroke-width="2" stroke-opacity="0.200000" points="361.73,-190.84 366.2,-186.32 359.88,-187.07 361.73,-190.84"/>
</g>
<!-- config/redisConnection.js&#45;&gt;config/logs.js -->
<g id="edge14" class="edge">
<title>config/redisConnection.js&#45;&gt;config/logs.js</title>
<path fill="none" stroke="#000000" stroke-width="2" stroke-opacity="0.200000" d="M298.9,-246.28C317.08,-251.27 339.58,-257.44 357.66,-262.39"/>
<polygon fill="#000000" fill-opacity="0.200000" stroke="#000000" stroke-width="2" stroke-opacity="0.200000" points="357.27,-264.47 363.62,-264.03 358.39,-260.41 357.27,-264.47"/>
</g>
<!-- config/textProcessWorker.js -->
<g id="node16" class="node">
<title>config/textProcessWorker.js</title>
<g id="a_node16"><a xlink:href="config/textProcessWorker.js" xlink:title="textProcessWorker.js">
<path fill="#ffffcc" stroke="black" d="M311,-380.26C311,-380.26 219,-380.26 219,-380.26 216,-380.26 213,-377.26 213,-374.26 213,-374.26 213,-368.26 213,-368.26 213,-365.26 216,-362.26 219,-362.26 219,-362.26 311,-362.26 311,-362.26 314,-362.26 317,-365.26 317,-368.26 317,-368.26 317,-374.26 317,-374.26 317,-377.26 314,-380.26 311,-380.26"/>
<text text-anchor="middle" x="265" y="-369.06" font-family="Helvetica,sans-Serif" font-size="9.00">textProcessWorker.js</text>
</a>
</g>
</g>
<!-- config/textProcessWorker.js&#45;&gt;config/logs.js -->
<g id="edge17" class="edge">
<title>config/textProcessWorker.js&#45;&gt;config/logs.js</title>
<path fill="none" stroke="#000000" stroke-width="2" stroke-opacity="0.200000" d="M305.45,-362.19C309.5,-360.53 313.43,-358.56 317,-356.26 345.58,-337.8 369.18,-304.89 381.27,-285.89"/>
<polygon fill="#000000" fill-opacity="0.200000" stroke="#000000" stroke-width="2" stroke-opacity="0.200000" points="383.25,-286.67 384.64,-280.47 379.69,-284.45 383.25,-286.67"/>
</g>
<!-- config/textProcessWorker.js&#45;&gt;worker_threads -->
<g id="edge18" class="edge">
<title>config/textProcessWorker.js&#45;&gt;worker_threads</title>
<path fill="none" stroke="#000000" stroke-dasharray="5,2" stroke-opacity="0.200000" d="M282.47,-380.43C293.72,-387.49 308.15,-398.23 317,-411.26 324.03,-421.61 315.88,-429.69 325,-438.26 330.71,-443.64 337.95,-447.22 345.51,-449.58"/>
<polygon fill="#000000" fill-opacity="0.200000" stroke="#000000" stroke-opacity="0.200000" points="345,-451.61 351.34,-451.15 346.09,-447.56 345,-451.61"/>
</g>
<!-- config/workerRelay.js&#45;&gt;config/logs.js -->
<g id="edge21" class="edge">
<title>config/workerRelay.js&#45;&gt;config/logs.js</title>
<path fill="none" stroke="#000000" stroke-width="2" stroke-opacity="0.200000" d="M200.11,-288.66C231.35,-287.89 277.18,-286.16 317,-282.26 330.37,-280.95 345.04,-278.87 357.69,-276.87"/>
<polygon fill="#000000" fill-opacity="0.200000" stroke="#000000" stroke-width="2" stroke-opacity="0.200000" points="358.14,-278.92 363.73,-275.9 357.47,-274.78 358.14,-278.92"/>
</g>
<!-- config/workerRelay.js&#45;&gt;worker_threads -->
<g id="edge22" class="edge">
<title>config/workerRelay.js&#45;&gt;worker_threads</title>
<path fill="none" stroke="#000000" stroke-dasharray="5,2" stroke-opacity="0.200000" d="M164.12,-298.57C168.39,-332.38 184.86,-447.87 213,-469.26 257.88,-503.38 328.87,-480.64 365.83,-464.83"/>
<polygon fill="#000000" fill-opacity="0.200000" stroke="#000000" stroke-opacity="0.200000" points="366.81,-466.69 371.46,-462.36 365.12,-462.85 366.81,-466.69"/>
</g>
<!-- config/workerRelay.js&#45;&gt;config/dbConnection.js -->
<g id="edge20" class="edge">
<title>config/workerRelay.js&#45;&gt;config/dbConnection.js</title>
<path fill="none" stroke="#000000" stroke-width="2" stroke-opacity="0.200000" d="M200.04,-281.19C205.49,-280.01 211.18,-278.77 216.81,-277.54"/>
<polygon fill="#000000" fill-opacity="0.200000" stroke="#000000" stroke-width="2" stroke-opacity="0.200000" points="217.46,-279.55 222.88,-276.22 216.57,-275.44 217.46,-279.55"/>
</g>
<!-- schema/tweetSchema.js -->
<g id="node18" class="node">
<title>schema/tweetSchema.js</title>
<g id="a_node18"><a xlink:href="schema/tweetSchema.js" xlink:title="tweetSchema.js">
<path fill="#ffffcc" stroke="black" d="M300,-440.26C300,-440.26 230,-440.26 230,-440.26 227,-440.26 224,-437.26 224,-434.26 224,-434.26 224,-428.26 224,-428.26 224,-425.26 227,-422.26 230,-422.26 230,-422.26 300,-422.26 300,-422.26 303,-422.26 306,-425.26 306,-428.26 306,-428.26 306,-434.26 306,-434.26 306,-437.26 303,-440.26 300,-440.26"/>
<text text-anchor="middle" x="265" y="-429.06" font-family="Helvetica,sans-Serif" font-size="9.00">tweetSchema.js</text>
</a>
</g>
</g>
<!-- config/workerRelay.js&#45;&gt;schema/tweetSchema.js -->
<g id="edge19" class="edge">
<title>config/workerRelay.js&#45;&gt;schema/tweetSchema.js</title>
<path fill="none" stroke="#000000" stroke-width="2" stroke-opacity="0.200000" d="M164.4,-298.37C168.23,-320.31 180.81,-376.66 213,-409.26 216.98,-413.29 221.82,-416.63 226.92,-419.38"/>
<polygon fill="#000000" fill-opacity="0.200000" stroke="#000000" stroke-width="2" stroke-opacity="0.200000" points="226.21,-421.38 232.52,-422.15 228.06,-417.61 226.21,-421.38"/>
</g>
<!-- creds/mongoKey_example.js -->
<g id="node19" class="node">
<title>creds/mongoKey_example.js</title>
<g id="a_node19"><a xlink:href="creds/mongoKey_example.js" xlink:title="mongoKey_example.js">
<path fill="#ccffcc" stroke="black" d="M440,-156.26C440,-156.26 342,-156.26 342,-156.26 339,-156.26 336,-153.26 336,-150.26 336,-150.26 336,-144.26 336,-144.26 336,-141.26 339,-138.26 342,-138.26 342,-138.26 440,-138.26 440,-138.26 443,-138.26 446,-141.26 446,-144.26 446,-144.26 446,-150.26 446,-150.26 446,-153.26 443,-156.26 440,-156.26"/>
<text text-anchor="middle" x="391" y="-145.06" font-family="Helvetica,sans-Serif" font-size="9.00">mongoKey_example.js</text>
</a>
</g>
</g>
<!-- creds/tweetapiKey_example.js -->
<g id="node21" class="node">
<title>creds/tweetapiKey_example.js</title>
<g id="a_node21"><a xlink:href="creds/tweetapiKey_example.js" xlink:title="tweetapiKey_example.js">
<path fill="#ccffcc" stroke="black" d="M443,-96.26C443,-96.26 339,-96.26 339,-96.26 336,-96.26 333,-93.26 333,-90.26 333,-90.26 333,-84.26 333,-84.26 333,-81.26 336,-78.26 339,-78.26 339,-78.26 443,-78.26 443,-78.26 446,-78.26 449,-81.26 449,-84.26 449,-84.26 449,-90.26 449,-90.26 449,-93.26 446,-96.26 443,-96.26"/>
<text text-anchor="middle" x="391" y="-85.06" font-family="Helvetica,sans-Serif" font-size="9.00">tweetapiKey_example.js</text>
</a>
</g>
</g>
<!-- dependencygraph.svg -->
<g id="node22" class="node">
<title>dependencygraph.svg</title>
<g id="a_node22"><a xlink:href="dependencygraph.svg" xlink:title="dependencygraph.svg">
<path fill="#ccffcc" stroke="black" d="M102,-210.26C102,-210.26 6,-210.26 6,-210.26 3,-210.26 0,-207.26 0,-204.26 0,-204.26 0,-198.26 0,-198.26 0,-195.26 3,-192.26 6,-192.26 6,-192.26 102,-192.26 102,-192.26 105,-192.26 108,-195.26 108,-198.26 108,-198.26 108,-204.26 108,-204.26 108,-207.26 105,-210.26 102,-210.26"/>
<text text-anchor="middle" x="54" y="-199.06" font-family="Helvetica,sans-Serif" font-size="9.00">dependencygraph.svg</text>
</a>
</g>
</g>
<!-- ecosystem.config.js -->
<g id="node23" class="node">
<title>ecosystem.config.js</title>
<g id="a_node23"><a xlink:href="ecosystem.config.js" xlink:title="ecosystem.config.js">
<path fill="#ccffcc" stroke="black" d="M97.5,-240.26C97.5,-240.26 10.5,-240.26 10.5,-240.26 7.5,-240.26 4.5,-237.26 4.5,-234.26 4.5,-234.26 4.5,-228.26 4.5,-228.26 4.5,-225.26 7.5,-222.26 10.5,-222.26 10.5,-222.26 97.5,-222.26 97.5,-222.26 100.5,-222.26 103.5,-225.26 103.5,-228.26 103.5,-228.26 103.5,-234.26 103.5,-234.26 103.5,-237.26 100.5,-240.26 97.5,-240.26"/>
<text text-anchor="middle" x="54" y="-229.06" font-family="Helvetica,sans-Serif" font-size="9.00">ecosystem.config.js</text>
</a>
</g>
</g>
<!-- ecosystem.json -->
<g id="node24" class="node">
<title>ecosystem.json</title>
<g id="a_node24"><a xlink:href="ecosystem.json" xlink:title="ecosystem.json">
<path fill="#ccffcc" stroke="black" d="M88.5,-270.26C88.5,-270.26 19.5,-270.26 19.5,-270.26 16.5,-270.26 13.5,-267.26 13.5,-264.26 13.5,-264.26 13.5,-258.26 13.5,-258.26 13.5,-255.26 16.5,-252.26 19.5,-252.26 19.5,-252.26 88.5,-252.26 88.5,-252.26 91.5,-252.26 94.5,-255.26 94.5,-258.26 94.5,-258.26 94.5,-264.26 94.5,-264.26 94.5,-267.26 91.5,-270.26 88.5,-270.26"/>
<text text-anchor="middle" x="54" y="-259.06" font-family="Helvetica,sans-Serif" font-size="9.00">ecosystem.json</text>
</a>
</g>
</g>
<!-- package&#45;lock.json -->
<g id="node25" class="node">
<title>package&#45;lock.json</title>
<g id="a_node25"><a xlink:href="package-lock.json" xlink:title="package&#45;lock.json">
<path fill="#ccffcc" stroke="black" d="M93.5,-300.26C93.5,-300.26 14.5,-300.26 14.5,-300.26 11.5,-300.26 8.5,-297.26 8.5,-294.26 8.5,-294.26 8.5,-288.26 8.5,-288.26 8.5,-285.26 11.5,-282.26 14.5,-282.26 14.5,-282.26 93.5,-282.26 93.5,-282.26 96.5,-282.26 99.5,-285.26 99.5,-288.26 99.5,-288.26 99.5,-294.26 99.5,-294.26 99.5,-297.26 96.5,-300.26 93.5,-300.26"/>
<text text-anchor="middle" x="54" y="-289.06" font-family="Helvetica,sans-Serif" font-size="9.00">package&#45;lock.json</text>
</a>
</g>
</g>
<!-- package.json -->
<g id="node26" class="node">
<title>package.json</title>
<g id="a_node26"><a xlink:href="package.json" xlink:title="package.json">
<path fill="#ccffcc" stroke="black" d="M83.5,-330.26C83.5,-330.26 24.5,-330.26 24.5,-330.26 21.5,-330.26 18.5,-327.26 18.5,-324.26 18.5,-324.26 18.5,-318.26 18.5,-318.26 18.5,-315.26 21.5,-312.26 24.5,-312.26 24.5,-312.26 83.5,-312.26 83.5,-312.26 86.5,-312.26 89.5,-315.26 89.5,-318.26 89.5,-318.26 89.5,-324.26 89.5,-324.26 89.5,-327.26 86.5,-330.26 83.5,-330.26"/>
<text text-anchor="middle" x="54" y="-319.06" font-family="Helvetica,sans-Serif" font-size="9.00">package.json</text>
</a>
</g>
</g>
</g>
</svg>
